<svg width="37" height="37" viewBox="0 0 37 37" fill="none" xmlns="http://www.w3.org/2000/svg">
<g opacity="0.8" clip-path="url(#clip0_29_3666)">
<path d="M31.5815 5.41848C28.0873 1.92438 23.4415 0 18.5 0C13.5585 0 8.91273 1.92438 5.41848 5.41848C1.92438 8.91273 0 13.5585 0 18.5C0 23.4415 1.92438 28.0873 5.41848 31.5815C8.91273 35.0756 13.5585 37 18.5 37C23.4415 37 28.0873 35.0756 31.5815 31.5815C35.0756 28.0873 37 23.4415 37 18.5C37 13.5585 35.0756 8.91273 31.5815 5.41848ZM18.5 34.7113C9.56103 34.7113 2.28866 27.439 2.28866 18.5C2.28866 9.56103 9.56103 2.28866 18.5 2.28866C27.439 2.28866 34.7113 9.56103 34.7113 18.5C34.7113 27.439 27.439 34.7113 18.5 34.7113Z" fill="white"/>
<path d="M24.2992 17.6598C25.7715 17.6598 26.9693 16.462 26.9693 14.9897C26.9693 13.5174 25.7715 12.3196 24.2992 12.3196C22.8269 12.3196 21.6291 13.5174 21.6291 14.9897C21.6291 16.462 22.8269 17.6598 24.2992 17.6598ZM12.7011 17.6598C14.1734 17.6598 15.3712 16.462 15.3712 14.9897C15.3712 13.5174 14.1734 12.3196 12.7011 12.3196C11.2288 12.3196 10.031 13.5174 10.031 14.9897C10.031 16.462 11.2289 17.6598 12.7011 17.6598ZM18.5001 27.0825C14.9214 27.0825 11.6838 24.8229 10.4438 21.4598L8.29639 22.2515C9.86648 26.51 13.9671 29.3712 18.5001 29.3712C23.0332 29.3712 27.1338 26.51 28.7039 22.2515L26.5565 21.4598C25.3165 24.8229 22.0789 27.0825 18.5001 27.0825Z" fill="white"/>
</g>
<defs>
<clipPath id="clip0_29_3666">
<rect width="37" height="37" fill="white"/>
</clipPath>
</defs>
</svg>
