<svg width="29" height="29" viewBox="0 0 29 29" fill="none" xmlns="http://www.w3.org/2000/svg">
<path d="M14.4 28.8C22.3529 28.8 28.8 22.3529 28.8 14.4C28.8 6.4471 22.3529 0 14.4 0C6.4471 0 0 6.4471 0 14.4C0 22.3529 6.4471 28.8 14.4 28.8Z" fill="#F4F4F4"/>
<path d="M8.41092 13.9692L20.1247 9.45274C20.6684 9.25633 21.1432 9.58537 20.9671 10.4075L20.9681 10.4064L18.9736 19.8028C18.8258 20.469 18.4299 20.631 17.8761 20.3171L14.8388 18.0786L13.3738 19.4899C13.2119 19.6519 13.0752 19.7886 12.7613 19.7886L12.977 16.6977L18.6061 11.6122C18.8511 11.3966 18.5514 11.2751 18.2284 11.4897L11.272 15.8695L8.27323 14.934C7.62224 14.7275 7.60807 14.283 8.41092 13.9692Z" fill="#039BE5"/>
</svg>
