<svg width="15" height="15" viewBox="0 0 15 15" fill="none" xmlns="http://www.w3.org/2000/svg">
<g clip-path="url(#clip0_8_1886)">
<path d="M7.5 0C3.36448 0 0 3.36448 0 7.5C0 11.6355 3.36448 15 7.5 15C11.6355 15 15 11.6355 15 7.5C15 3.36448 11.6355 0 7.5 0ZM7.5 14.0625C3.88143 14.0625 0.9375 11.1186 0.9375 7.5C0.9375 3.88143 3.88143 0.9375 7.5 0.9375C11.1186 0.9375 14.0625 3.88143 14.0625 7.5C14.0625 11.1186 11.1186 14.0625 7.5 14.0625ZM7.96875 2.68318V7.5C7.96875 7.58224 7.94712 7.66303 7.90602 7.73426C7.86492 7.80549 7.80581 7.86466 7.73461 7.90582L5.00487 9.48387C4.93374 9.52515 4.85295 9.54689 4.7707 9.54688C4.60878 9.54688 4.45131 9.46292 4.36444 9.31266C4.23486 9.08854 4.31153 8.80178 4.53565 8.67226L7.03125 7.22956V2.68318C7.03125 2.42429 7.24113 2.21443 7.5 2.21443C7.75887 2.21443 7.96875 2.42429 7.96875 2.68318Z" fill="#3E4D31"/>
</g>
<defs>
<clipPath id="clip0_8_1886">
<rect width="15" height="15" fill="white"/>
</clipPath>
</defs>
</svg>
