<svg width="30" height="29" viewBox="0 0 30 29" fill="none" xmlns="http://www.w3.org/2000/svg">
<path d="M15.2008 28.8C23.1537 28.8 29.6008 22.3529 29.6008 14.4C29.6008 6.4471 23.1537 0 15.2008 0C7.24788 0 0.800781 6.4471 0.800781 14.4C0.800781 22.3529 7.24788 28.8 15.2008 28.8Z" fill="#F4F4F4"/>
<path d="M20.3974 9.73596C19.171 8.49735 17.5424 7.73776 15.8053 7.59419C14.0682 7.45061 12.337 7.93251 10.9239 8.95296C9.51086 9.97341 8.50895 11.4652 8.09893 13.1593C7.6889 14.8534 7.89776 16.6383 8.68783 18.192L7.91228 21.9572C7.90423 21.9947 7.904 22.0334 7.91161 22.071C7.91922 22.1085 7.93449 22.1441 7.95648 22.1755C7.9887 22.2232 8.03468 22.2599 8.08829 22.2807C8.1419 22.3015 8.20059 22.3055 8.25652 22.2921L11.9467 21.4174C13.496 22.1875 15.2683 22.3829 16.9482 21.9689C18.628 21.5549 20.1066 20.5584 21.1206 19.1566C22.1347 17.7548 22.6186 16.0387 22.4862 14.3137C22.3537 12.5886 21.6136 10.9665 20.3974 9.73596ZM19.2468 18.9193C18.3983 19.7654 17.3056 20.324 16.1229 20.5162C14.9401 20.7085 13.7268 20.5247 12.654 19.9909L12.1396 19.7364L9.87727 20.2722L9.88397 20.244L10.3528 17.9669L10.101 17.47C9.5528 16.3934 9.35943 15.171 9.54855 13.9778C9.73767 12.7846 10.2996 11.6819 11.1538 10.8276C12.2271 9.75463 13.6826 9.15186 15.2003 9.15186C16.718 9.15186 18.1735 9.75463 19.2468 10.8276C19.2559 10.8381 19.2658 10.8479 19.2763 10.8571C20.3363 11.9328 20.928 13.384 20.9225 14.8943C20.917 16.4045 20.3147 17.8513 19.2468 18.9193Z" fill="#29A71A"/>
<path d="M19.0459 17.2493C18.7686 17.686 18.3306 18.2204 17.7801 18.353C16.8157 18.5861 15.3356 18.3611 13.4938 16.6439L13.4711 16.6238C11.8517 15.1222 11.4311 13.8725 11.5329 12.8813C11.5891 12.3187 12.0579 11.8098 12.4531 11.4776C12.5155 11.4243 12.5896 11.3863 12.6694 11.3667C12.7492 11.3472 12.8324 11.3465 12.9124 11.3649C12.9925 11.3832 13.0671 11.4201 13.1304 11.4724C13.1937 11.5248 13.2438 11.5912 13.2768 11.6664L13.8729 13.0059C13.9116 13.0927 13.926 13.1885 13.9144 13.2829C13.9029 13.3773 13.8658 13.4667 13.8073 13.5417L13.5059 13.9328C13.4412 14.0136 13.4022 14.1118 13.3938 14.2149C13.3855 14.3181 13.4082 14.4213 13.459 14.5114C13.6278 14.8075 14.0323 15.2428 14.481 15.646C14.9847 16.1014 15.5432 16.518 15.8968 16.6599C15.9914 16.6986 16.0955 16.708 16.1955 16.687C16.2955 16.666 16.387 16.6155 16.4581 16.5421L16.8077 16.1898C16.8751 16.1233 16.959 16.0758 17.0508 16.0523C17.1425 16.0288 17.2389 16.03 17.3301 16.0558L18.7459 16.4577C18.824 16.4816 18.8955 16.5231 18.9551 16.579C19.0147 16.6349 19.0608 16.7036 19.0897 16.78C19.1187 16.8564 19.1298 16.9384 19.1222 17.0197C19.1146 17.1011 19.0885 17.1796 19.0459 17.2493Z" fill="#29A71A"/>
</svg>
